<svg id="Capa_1" data-name="Capa 1" xmlns="http://www.w3.org/2000/svg" viewBox="0 0 20 20"><path d="M12,4A10,10,0,0,0,3.36,19L2,24l5.23-1.24A9.93,9.93,0,0,0,12,24h0A10,10,0,1,0,12,4Zm0,2a8,8,0,0,1,0,16,8,8,0,0,1-3.82-1l-.67-.37-.75.18-2,.46.49-1.78.21-.8L5.09,18A8,8,0,0,1,12,6ZM8.48,9.38a.92.92,0,0,0-.67.31,2.79,2.79,0,0,0-.87,2.08,4.81,4.81,0,0,0,1,2.58,10.14,10.14,0,0,0,4.26,3.77c2.11.83,2.53.66,3,.62a2.51,2.51,0,0,0,1.69-1.19A2,2,0,0,0,17,16.37c-.06-.11-.22-.17-.47-.29s-1.48-.73-1.71-.81-.4-.13-.56.12-.64.81-.79,1-.29.19-.54.06a6.68,6.68,0,0,1-2-1.24,7.69,7.69,0,0,1-1.39-1.73c-.14-.24,0-.38.11-.5s.25-.3.38-.44a2.22,2.22,0,0,0,.25-.42.48.48,0,0,0,0-.44c-.07-.12-.55-1.35-.77-1.85S9.13,9.39,9,9.38,8.64,9.38,8.48,9.38Z" transform="translate(-2 -4)"/></svg>